<svg width="763" height="145" viewBox="0 0 763 145" fill="none" xmlns="http://www.w3.org/2000/svg">
<g filter="url(#filter0_d_18_7)">
<path d="M15.4666 120.66V4.68137H16.5985L73.7169 97.0634V10.2539L69.4505 5.98743V4.68137H79.2895V5.98743L75.1101 10.2539V120.834L79.3765 125.013V126.406H69.3634V125.013L73.6299 120.834V111.256L16.5985 19.3092V120.66L21.0391 124.926V126.319H11.026V124.926L15.4666 120.66Z" fill="white"/>
<path d="M136.148 34.8072C161.572 34.8072 181.947 55.1818 181.947 80.6065C181.947 106.031 161.572 126.406 136.148 126.406C110.723 126.406 90.3484 106.031 90.3484 80.6065C90.3484 55.1818 110.723 34.8072 136.148 34.8072ZM97.314 76.6883C97.314 82.2608 98.3589 87.8333 100.274 93.3188C106.892 112.126 123.261 124.316 139.892 124.316C143.636 124.316 147.38 123.707 151.037 122.4C160.876 118.743 168.277 110.994 172.021 101.155C173.936 96.1921 174.894 92.1869 174.981 89.2265C174.981 86.2661 174.981 84.6988 174.981 84.4376C174.981 78.9521 173.936 73.3796 172.021 67.9812C165.055 49.174 149.034 36.984 132.316 36.984C128.572 36.984 124.915 37.5935 121.258 38.8996C106.369 44.1238 97.4882 59.2741 97.2269 76.1658C97.314 76.2529 97.314 76.5142 97.314 76.6883ZM105.76 16.6965C105.847 14.781 106.108 12.9525 106.282 11.2111C106.631 8.2507 106.892 5.46443 106.892 4.59372H241.068C241.068 5.46443 241.155 8.2507 241.59 11.2111C241.677 12.8654 241.938 14.6939 242.2 16.6965H240.894L234.886 5.89978H203.976V119.962L209.026 124.925V126.319H191.786V124.925C192.656 124.142 193.44 123.358 194.137 122.749L196.836 120.05V5.98686H112.987L106.892 16.7836H105.76V16.6965Z" fill="white"/>
<path d="M289.218 4.68137C323.002 4.68137 349.994 31.6733 349.994 65.4567C349.994 98.979 323.002 126.232 289.218 126.232C255.696 126.232 228.443 98.979 228.443 65.4567C228.53 31.6733 255.783 4.68137 289.218 4.68137ZM236.192 59.7101C236.192 66.9369 237.324 74.0767 239.588 81.2165C247.25 105.77 267.189 124.055 291.395 124.055C296.619 124.055 301.756 123.272 306.981 121.617C322.566 116.567 332.841 105.945 337.978 92.797C340.59 86.2666 341.896 81.1294 341.983 77.2113C341.983 73.2931 341.983 71.2034 341.983 70.9422C341.983 63.8024 340.851 56.6626 338.587 49.5228C330.577 25.143 311.073 6.68399 286.693 6.68399C281.904 6.68399 276.593 7.5547 271.02 9.29611C247.773 16.7842 236.279 36.8976 236.279 58.8394C236.192 59.1877 236.192 59.4489 236.192 59.7101Z" fill="white"/>
<path d="M360.878 4.68137H401.627C418.78 4.68137 430.795 16.8713 431.231 35.069C431.231 35.3303 431.231 35.5915 431.231 35.8527C431.231 53.0927 418.257 66.5016 401.801 66.8498L424.875 120.311L431.231 125.013V126.406H413.468V125.013L416.864 120.485L393.007 66.8498H373.155V120.05L378.118 125.013V126.406H360.965V125.013L365.928 120.05V10.8634L360.965 5.90036V4.68137H360.878ZM373.067 5.98743V65.5438H401.191C414.165 65.1955 424.004 52.1349 424.004 35.9398C424.004 35.6785 424.004 35.3303 424.004 35.069C423.656 17.3937 412.946 5.98743 399.885 5.98743H373.067Z" fill="white"/>
<path d="M442.202 126.406V125.013L447.165 120.05V10.8628L442.202 5.89978V4.59372H459.355V5.89978L454.392 10.8628V119.962L459.355 124.925V126.319H442.202V126.406Z" fill="white"/>
<path d="M531.012 4.68137C564.795 4.68137 591.787 31.6733 591.787 65.4567C591.787 98.979 564.795 126.232 531.012 126.232C497.489 126.232 470.236 98.979 470.236 65.4567C470.236 31.6733 497.489 4.68137 531.012 4.68137ZM477.899 59.7101C477.899 66.937 479.03 74.0767 481.294 81.2165C488.956 105.77 508.896 124.055 533.101 124.055C538.326 124.055 543.463 123.272 548.687 121.617C564.273 116.567 574.547 105.945 579.684 92.797C582.296 86.2666 583.602 81.1295 583.689 77.2113C583.689 73.2931 583.689 71.2034 583.689 70.9422C583.689 63.8024 582.557 56.6626 580.294 49.5228C572.283 25.143 552.779 6.68399 528.4 6.68399C523.611 6.68399 518.299 7.5547 512.727 9.29611C489.479 16.7842 477.986 36.8975 477.986 58.8394C477.898 59.1877 477.899 59.4489 477.899 59.7101Z" fill="white"/>
<path d="M619.735 4.6808V5.98686L614.685 10.9499L614.772 99.5879C614.772 113.606 629.052 125.013 643.157 125.013C657.175 125.013 671.542 113.606 671.542 99.5879V10.8628L666.318 5.89978V4.59372H683.558V5.89978L678.595 10.8628V93.6671C678.595 111.691 660.92 126.406 643.07 126.406C625.046 126.406 607.371 111.778 607.371 93.6671V10.8628L602.408 5.89978V4.59372H619.735V4.6808Z" fill="white"/>
<path d="M689.483 111.168C689.57 110.385 689.831 109.601 690.006 108.73C690.354 107.337 690.615 105.335 691.138 103.419C691.486 101.242 692.182 98.6301 692.792 95.6697H693.924C696.623 111.865 703.153 123.968 719.784 125.013C720.306 125.013 720.655 125.013 721.177 125.013C728.839 125.013 735.805 120.833 740.158 113.606C744.425 106.466 744.686 99.5879 744.686 96.1921C744.686 93.0576 744.338 89.9231 743.554 86.7014C739.897 72.4218 730.581 64.9337 721.003 58.9258C711.512 53.0921 701.673 46.5618 698.19 34.2848C697.581 31.8469 697.145 29.3218 697.145 27.058C697.145 25.1424 697.145 20.4406 700.367 14.8681C703.589 9.29553 709.161 5.5515 716.823 4.59372L740.594 4.6808C740.594 5.5515 741.203 8.59896 741.726 11.2982C742.074 12.9525 742.335 14.6939 742.771 16.6095L741.464 16.6965C741.116 15.9129 734.673 6.33514 733.976 5.5515H717.868C712.905 6.33514 709.161 8.25067 706.462 11.2982C703.763 14.2586 702.283 17.0448 702.021 19.4828C701.673 21.9208 701.499 23.6622 701.499 24.4458C701.499 31.0632 704.459 39.7703 712.818 46.6489C717.52 50.6542 725.269 54.5723 732.67 60.1449C740.071 65.7174 747.211 73.0313 750.172 83.4798C751.303 87.6592 752 91.4903 752 95.3214C752 98.7172 751.652 106.118 746.515 113.345C741.464 120.572 733.541 125.187 725.356 126.057C723.789 126.144 722.135 126.319 720.567 126.319C717.694 126.319 713.166 126.232 707.072 123.881C704.111 122.749 701.064 121.181 698.103 119.092C695.143 117.002 692.182 114.477 689.483 111.168Z" fill="white"/>
</g>
<defs>
<filter id="filter0_d_18_7" x="0.026001" y="0.593719" width="762.974" height="143.813" filterUnits="userSpaceOnUse" color-interpolation-filters="sRGB">
<feFlood flood-opacity="0" result="BackgroundImageFix"/>
<feColorMatrix in="SourceAlpha" type="matrix" values="0 0 0 0 0 0 0 0 0 0 0 0 0 0 0 0 0 0 127 0" result="hardAlpha"/>
<feOffset dy="7"/>
<feGaussianBlur stdDeviation="5.5"/>
<feComposite in2="hardAlpha" operator="out"/>
<feColorMatrix type="matrix" values="0 0 0 0 0 0 0 0 0 0 0 0 0 0 0 0 0 0 1 0"/>
<feBlend mode="normal" in2="BackgroundImageFix" result="effect1_dropShadow_18_7"/>
<feBlend mode="normal" in="SourceGraphic" in2="effect1_dropShadow_18_7" result="shape"/>
</filter>
</defs>
</svg>
