<svg width="181" height="30" viewBox="0 0 181 30" fill="none" xmlns="http://www.w3.org/2000/svg">
<path d="M1.07935 28.2113V0.0213013H1.35448L15.2379 22.476V1.37578L14.2008 0.338757V0.0213013H16.5923V0.338757L15.5765 1.37578V28.2537L16.6135 29.2695V29.6081H14.1797V29.2695L15.2167 28.2537V25.9256L1.35448 3.5768V28.2113L2.43382 29.2484V29.587H0V29.2484L1.07935 28.2113Z" fill="white"/>
<path d="M30.4124 7.3438C36.5922 7.3438 41.5445 12.2961 41.5445 18.4759C41.5445 24.6557 36.5922 29.608 30.4124 29.608C24.2326 29.608 19.2803 24.6557 19.2803 18.4759C19.2803 12.2961 24.2326 7.3438 30.4124 7.3438ZM20.9734 17.5235C20.9734 18.878 21.2274 20.2325 21.693 21.5658C23.3014 26.1372 27.2802 29.1001 31.3225 29.1001C32.2325 29.1001 33.1425 28.9519 34.0314 28.6345C36.4229 27.7456 38.2218 25.862 39.1319 23.4705C39.5975 22.2642 39.8303 21.2907 39.8514 20.5711C39.8514 19.8515 39.8514 19.4706 39.8514 19.4071C39.8514 18.0738 39.5975 16.7193 39.1319 15.4072C37.4388 10.8358 33.5447 7.87289 29.4812 7.87289C28.5712 7.87289 27.6823 8.02104 26.7934 8.33849C23.1745 9.60831 21.0158 13.2908 20.9523 17.3965C20.9734 17.4177 20.9734 17.4812 20.9734 17.5235ZM23.0263 2.94175C23.0475 2.47615 23.111 2.03172 23.1533 1.60844C23.2379 0.888876 23.3014 0.211637 23.3014 0H55.9147C55.9147 0.211637 55.9358 0.888876 56.0417 1.60844C56.0628 2.01055 56.1263 2.45499 56.1898 2.94175H55.8723L54.4121 0.317455H46.8989V28.0419L48.1264 29.2482V29.5868H43.936V29.2482C44.1477 29.0577 44.3381 28.8673 44.5074 28.7191L45.1635 28.0631V0.33862H24.7829L23.3014 2.96292H23.0263V2.94175Z" fill="white"/>
<path d="M67.6183 0.0213013C75.8298 0.0213013 82.3906 6.58204 82.3906 14.7936C82.3906 22.9416 75.8298 29.5658 67.6183 29.5658C59.4703 29.5658 52.8461 22.9416 52.8461 14.7936C52.8672 6.58204 59.4915 0.0213013 67.6183 0.0213013ZM54.7296 13.3968C54.7296 15.1533 55.0048 16.8888 55.555 18.6242C57.4174 24.5923 62.2639 29.0367 68.1474 29.0367C69.4172 29.0367 70.6659 28.8462 71.9357 28.4441C75.724 27.2166 78.2213 24.6347 79.47 21.439C80.1049 19.8517 80.4223 18.603 80.4435 17.6506C80.4435 16.6983 80.4435 16.1904 80.4435 16.1269C80.4435 14.3914 80.1684 12.656 79.6181 10.9206C77.6711 4.99477 72.9304 0.508063 67.0046 0.508063C65.8406 0.508063 64.5496 0.7197 63.1951 1.14297C57.5444 2.96305 54.7508 7.85187 54.7508 13.1851C54.7296 13.2698 54.7296 13.3333 54.7296 13.3968Z" fill="white"/>
<path d="M85.036 0.0213013H94.9406C99.1099 0.0213013 102.03 2.98422 102.136 7.40743C102.136 7.47092 102.136 7.53441 102.136 7.5979C102.136 11.7883 98.9829 15.0475 94.9829 15.1322L100.591 28.1267L102.136 29.2695V29.6081H97.8189V29.2695L98.6443 28.169L92.8454 15.1322H88.0201V28.0632L89.2264 29.2695V29.6081H85.0572V29.2695L86.2635 28.0632V1.52392L85.0572 0.317592V0.0213013H85.036ZM87.9989 0.338757V14.8147H94.8348C97.9882 14.7301 100.38 11.5555 100.38 7.61906C100.38 7.55557 100.38 7.47092 100.38 7.40743C100.295 3.1112 97.6919 0.338757 94.5173 0.338757H87.9989Z" fill="white"/>
<path d="M104.803 29.608V29.2694L106.009 28.0631V1.52378L104.803 0.317455V0H108.972V0.317455L107.766 1.52378V28.0419L108.972 29.2482V29.5868H104.803V29.608Z" fill="white"/>
<path d="M126.389 0.0213013C134.601 0.0213013 141.162 6.58204 141.162 14.7936C141.162 22.9416 134.601 29.5658 126.389 29.5658C118.241 29.5658 111.617 22.9416 111.617 14.7936C111.617 6.58204 118.241 0.0213013 126.389 0.0213013ZM113.48 13.3968C113.48 15.1533 113.755 16.8888 114.305 18.6242C116.167 24.5923 121.014 29.0367 126.897 29.0367C128.167 29.0367 129.416 28.8462 130.686 28.4441C134.474 27.2166 136.971 24.6347 138.22 21.439C138.855 19.8517 139.172 18.603 139.193 17.6507C139.193 16.6983 139.193 16.1904 139.193 16.1269C139.193 14.3914 138.918 12.656 138.368 10.9206C136.421 4.99477 131.68 0.508063 125.754 0.508063C124.59 0.508063 123.299 0.7197 121.945 1.14297C116.294 2.96305 113.501 7.85187 113.501 13.1851C113.48 13.2698 113.48 13.3333 113.48 13.3968Z" fill="white"/>
<path d="M147.955 0.021165V0.33862L146.727 1.54495L146.748 23.0896C146.748 26.4969 150.219 29.2694 153.648 29.2694C157.055 29.2694 160.547 26.4969 160.547 23.0896V1.52378L159.277 0.317455V0H163.468V0.317455L162.261 1.52378V21.6505C162.261 26.0313 157.965 29.608 153.627 29.608C149.246 29.608 144.95 26.0525 144.95 21.6505V1.52378L143.743 0.317455V0H147.955V0.021165Z" fill="white"/>
<path d="M164.908 25.9044C164.929 25.7139 164.993 25.5234 165.035 25.3118C165.12 24.9732 165.183 24.4864 165.31 24.0208C165.395 23.4917 165.564 22.8568 165.712 22.1372H165.987C166.643 26.0737 168.231 29.0154 172.273 29.2694C172.4 29.2694 172.485 29.2694 172.612 29.2694C174.474 29.2694 176.167 28.2535 177.225 26.4969C178.262 24.7615 178.326 23.0896 178.326 22.2642C178.326 21.5023 178.241 20.7404 178.051 19.9574C177.162 16.4865 174.897 14.6664 172.569 13.2061C170.262 11.7882 167.871 10.2009 167.024 7.21682C166.876 6.62424 166.77 6.01049 166.77 5.46023C166.77 4.99463 166.77 3.85179 167.553 2.49731C168.336 1.14284 169.691 0.232801 171.553 0L177.331 0.021165C177.331 0.232802 177.479 0.973526 177.606 1.6296C177.691 2.03171 177.754 2.45499 177.86 2.92059L177.543 2.94175C177.458 2.75128 175.892 0.423275 175.723 0.232802H171.807C170.601 0.423275 169.691 0.888871 169.035 1.6296C168.379 2.34917 168.019 3.02641 167.956 3.61899C167.871 4.21158 167.829 4.63485 167.829 4.82532C167.829 6.43376 168.548 8.55013 170.58 10.2221C171.723 11.1956 173.606 12.148 175.405 13.5024C177.204 14.8569 178.939 16.6347 179.659 19.1743C179.934 20.1902 180.103 21.1214 180.103 22.0526C180.103 22.8779 180.019 24.6769 178.77 26.4334C177.543 28.19 175.617 29.3117 173.627 29.5233C173.246 29.5445 172.844 29.5868 172.463 29.5868C171.765 29.5868 170.664 29.5657 169.183 28.9942C168.463 28.7191 167.723 28.3382 167.003 27.8302C166.284 27.3223 165.564 26.7086 164.908 25.9044Z" fill="white"/>
</svg>
